# xmcd
#
# Track frame offsets:
#	150
#	15515
#	30219
#	44066
#	60043
#	74454
#	89536
#	104912
#	123338
#	139142
#	159590
#	173693
#	188345
#	204325
#	204993
#	205636
#	206533
#	207281
#	207994
#	208640
#
# Disc length: 2788 seconds
#
# Revision: 1
# Processed by: cddbd v1.5.2PL0 Copyright (c) Steve Scherf et al.
# Submitted via: audiograbber 1.83.01
#
DISCID=1a0ae214
DTITLE=Various Artist - CDX Volume 594 (April 28, 2014)
DYEAR=2014
DGENRE=Country
TTITLE0=Kip Moore - Dirt Road 
TTITLE1=Blake Shelton - My Eyes
TTITLE2=Brad Paisley - River Bank
TTITLE3=John King - Tonight Tonight
TTITLE4=Casey Donahew Band - Lovin' Out Of Control
TTITLE5=Buzz Cason - That's What I Love About The South
TTITLE6=Corey Kane Band - Cheatin' On A Country Girl
TTITLE7=Johnny Orr Band - Down South
TTITLE8=Devin Lane - Fast Lane
TTITLE9=Ally Lindeen - Teardrops Dry
TTITLE10=Danny Griego - The Coast Is Clear
TTITLE11=Grayson - Time Machine
TTITLE12=Misty Rae Carson - Woke Up One Day 
TTITLE13=Hannah Belle - Liner - Hometown Country
TTITLE14=Hannah Belle - Liner - Kickin' Country
TTITLE15=Hannah Belle - Liner - My New Single
TTITLE16=Hannah Belle - Liner - Super Country
TTITLE17=Hannah Belle - Liner - The Best In Country
TTITLE18=Hannah Belle - Liner - Today's Best Country
TTITLE19=Hannah Belle - Liner - Today's Hot Country Music
EXTD=
EXTT0=
EXTT1=
EXTT2=
EXTT3=
EXTT4=
EXTT5=
EXTT6=
EXTT7=
EXTT8=
EXTT9=
EXTT10=
EXTT11=
EXTT12=
EXTT13=
EXTT14=
EXTT15=
EXTT16=
EXTT17=
EXTT18=
EXTT19=
PLAYORDER=
